<?xml version="1.0" encoding="UTF-8"?>
<svg version="1.1" xmlns="http://www.w3.org/2000/svg" width="600" height="598">
<path d="M0 0 C0.9378685 -0.00705963 1.875737 -0.01411926 2.84202576 -0.02139282 C41.93484985 -0.24883522 41.93484985 -0.24883522 60.7421875 3.203125 C62.45365967 3.50911621 62.45365967 3.50911621 64.19970703 3.82128906 C88.77406583 8.31193529 111.88181483 15.15110733 134.7421875 25.203125 C135.95551758 25.73244629 135.95551758 25.73244629 137.19335938 26.27246094 C168.74695303 40.18248805 196.97931616 60.32411581 221.7421875 84.203125 C222.62052246 85.04858887 222.62052246 85.04858887 223.51660156 85.91113281 C231.14100886 93.29103747 238.18360357 100.84658444 244.7421875 109.203125 C245.68227481 110.34461156 246.62514943 111.48380641 247.5703125 112.62109375 C296.78889859 172.21113764 318.44170722 252.61415406 311.39013672 329.01757812 C305.47612343 385.32645798 284.92973695 438.91115213 249.99609375 483.59667969 C248.82185674 485.10105655 247.6717082 486.62414858 246.5234375 488.1484375 C245.935625 488.82648438 245.3478125 489.50453125 244.7421875 490.203125 C244.0821875 490.203125 243.4221875 490.203125 242.7421875 490.203125 C242.46995361 490.79681885 242.19771973 491.3905127 241.91723633 492.00219727 C240.76952042 494.15192901 239.60343016 495.65008345 237.94140625 497.41796875 C237.38300049 498.01528809 236.82459473 498.61260742 236.24926758 499.22802734 C235.64880615 499.85918457 235.04834473 500.4903418 234.4296875 501.140625 C233.80666748 501.8001416 233.18364746 502.4596582 232.54174805 503.13916016 C230.6165099 505.16826144 228.6817247 507.18769287 226.7421875 509.203125 C226.1637207 509.80495605 225.58525391 510.40678711 224.98925781 511.02685547 C217.95824151 518.30152085 210.70010809 524.93679448 202.7421875 531.203125 C201.59954742 532.14469534 200.45903601 533.088853 199.3203125 534.03515625 C151.79343341 573.28237952 87.3288984 598.09343212 25.484375 598.40625 C24.5465065 598.41330963 23.608638 598.42036926 22.64234924 598.42764282 C-16.45047485 598.65508522 -16.45047485 598.65508522 -35.2578125 595.203125 C-36.39879395 594.99913086 -37.53977539 594.79513672 -38.71533203 594.58496094 C-63.28969083 590.09431471 -86.39743983 583.25514267 -109.2578125 573.203125 C-110.47114258 572.67380371 -110.47114258 572.67380371 -111.70898438 572.13378906 C-149.74577554 555.36572131 -192.63221744 526.64192711 -217.2578125 492.203125 C-217.2578125 491.543125 -217.2578125 490.883125 -217.2578125 490.203125 C-217.804375 490.01621094 -218.3509375 489.82929688 -218.9140625 489.63671875 C-222.35399697 487.5326255 -224.41330074 484.47119804 -226.7578125 481.265625 C-227.27972168 480.55905762 -227.80163086 479.85249023 -228.33935547 479.12451172 C-275.44423879 414.43117032 -295.77239565 333.74448018 -283.78955078 254.46191406 C-279.39847774 227.55096688 -272.22821012 202.15208412 -261.2578125 177.203125 C-260.90493164 176.39423828 -260.55205078 175.58535156 -260.18847656 174.75195312 C-246.27844945 143.19835947 -226.13682169 114.96599634 -202.2578125 90.203125 C-201.69416992 89.61756836 -201.13052734 89.03201172 -200.54980469 88.42871094 C-193.16990003 80.80430364 -185.61435306 73.76170893 -177.2578125 67.203125 C-176.11632594 66.26303769 -174.97713109 65.32016307 -173.83984375 64.375 C-126.31662413 25.12304576 -61.84357988 0.3128131 0 0 Z " fill="#285F8E" transform="translate(287.2578125,-0.203125)"/>
<path d="M0 0 C2.02173339 1.59062847 3.71347247 3.11682356 5.5 4.9375 C23.51647209 22.28855925 46.76524663 33.4908976 71 39 C71.96292969 39.226875 72.92585937 39.45375 73.91796875 39.6875 C106.67870266 46.05395841 142.5771685 37.6631833 170.22387695 19.35864258 C176.27599326 15.22408125 182.119421 10.81403097 187.3671875 5.6875 C188.13289063 4.945 188.89859375 4.2025 189.6875 3.4375 C190.35136719 2.75558594 191.01523437 2.07367188 191.69921875 1.37109375 C195.11596002 -0.66502881 197.1839177 0.11170527 201 1 C246.20865116 13.05143788 292.15199826 41.85497215 316.04052734 82.78271484 C321.08625312 91.76557809 324.43990014 101.06929007 327 111 C327.2784375 112.01320313 327.556875 113.02640625 327.84375 114.0703125 C328.65425387 118.25394275 328.72228553 120.88206967 326.359375 124.53930664 C320.70238391 131.17477422 314.81774249 137.48689935 308.625 143.625 C307.75617188 144.5015625 306.88734375 145.378125 305.9921875 146.28125 C299.97259366 152.28303439 293.64576507 157.70735754 287 163 C285.74495339 164.03611104 284.49202022 165.07479302 283.2421875 166.1171875 C235.79135453 205.20572686 171.41607892 229.8911702 109.7421875 230.203125 C108.804319 230.21018463 107.8664505 230.21724426 106.90016174 230.22451782 C67.80733765 230.45196022 67.80733765 230.45196022 49 227 C47.85901855 226.79600586 46.71803711 226.59201172 45.54248047 226.38183594 C20.96812167 221.89118971 -2.13962733 215.05201767 -25 205 C-26.21333008 204.47067871 -26.21333008 204.47067871 -27.45117188 203.93066406 C-59.0039455 190.02099845 -87.23873231 169.87982239 -112 146 C-112.59087402 145.43104004 -113.18174805 144.86208008 -113.79052734 144.27587891 C-117.40484437 140.77627176 -120.96200946 137.22953641 -124.45214844 133.60595703 C-125.85428878 132.15118113 -127.27384052 130.71323646 -128.6953125 129.27734375 C-132.26174107 125.35675763 -134.56476647 122.43722204 -134.375 117 C-127.78669195 80.60989224 -103.02323523 52.69494923 -73.59375 32.09765625 C-55.09002725 19.44754463 -34.05822096 9.83938913 -12.88623047 2.64404297 C-11.1769238 2.06040965 -9.48013185 1.44043737 -7.78515625 0.81640625 C-4.85568401 -0.042303 -3.01271884 -0.52913258 0 0 Z " fill="#FDFDFD" transform="translate(203,368)"/>
<path d="M0 0 C1.79519559 1.55565675 3.56488063 3.14108058 5.3125 4.75 C5.82377441 5.21889648 6.33504883 5.68779297 6.86181641 6.17089844 C32.87502429 30.30203394 48.76418575 64.17653591 50.3125 99.75 C51.51725031 140.67827596 41.4317305 178.04425735 13.3125 208.75 C12.53519531 209.62140625 11.75789062 210.4928125 10.95703125 211.390625 C-8.11508119 231.70865433 -35.19972018 242.81623916 -62.6875 244.75 C-68.41037451 244.92200875 -74.01443732 244.46882801 -79.6875 243.75 C-80.9765625 243.59660156 -82.265625 243.44320313 -83.59375 243.28515625 C-112.78352341 238.81912092 -138.86897072 221.05967272 -156.3125 197.5625 C-179.58353258 165.30019944 -188.20082732 125.69921793 -182.5625 86.375 C-177.11389004 52.78754048 -159.55872249 20.11736911 -132.421875 -0.86328125 C-92.26837867 -29.49489994 -39.6524046 -31.36510959 0 0 Z " fill="#FDFDFD" transform="translate(366.6875,131.25)"/>
<path d="M0 0 C-1.43751234 3.2821443 -3.21569349 5.47282391 -5.73828125 8.00390625 C-6.84526367 9.11475586 -6.84526367 9.11475586 -7.97460938 10.24804688 C-8.74611328 11.01181641 -9.51761719 11.77558594 -10.3125 12.5625 C-11.07240234 13.33013672 -11.83230469 14.09777344 -12.61523438 14.88867188 C-13.35708984 15.62794922 -14.09894531 16.36722656 -14.86328125 17.12890625 C-15.53657471 17.79994385 -16.20986816 18.47098145 -16.90356445 19.16235352 C-19.12967851 21.11367068 -21.42300366 22.55361484 -24 24 C-22.46347997 20.36120325 -20.27579241 18.01785354 -17.5 15.234375 C-16.1696875 13.90019531 -16.1696875 13.90019531 -14.8125 12.5390625 C-13.4203125 11.15847656 -13.4203125 11.15847656 -12 9.75 C-11.071875 8.81414062 -10.14375 7.87828125 -9.1875 6.9140625 C-8.300625 6.02976562 -7.41375 5.14546875 -6.5 4.234375 C-5.6853125 3.42194336 -4.870625 2.60951172 -4.03125 1.77246094 C-2 0 -2 0 0 0 Z " fill="#90A8BD" transform="translate(101,76)"/>
<path d="M0 0 C10.48799497 -0.64948593 20.69492124 1.2918253 31 3 C31 3.33 31 3.66 31 4 C28.91673869 4.02709444 26.83337559 4.04643873 24.75 4.0625 C23.00976562 4.07990234 23.00976562 4.07990234 21.234375 4.09765625 C18.51854368 4.01565651 16.58170817 3.67521598 14 3 C11.5861824 2.77882441 9.16885403 2.59427758 6.75 2.4375 C5.48671875 2.35371094 4.2234375 2.26992188 2.921875 2.18359375 C1.95765625 2.12300781 0.9934375 2.06242188 0 2 C0 1.34 0 0.68 0 0 Z " fill="#A3B7C8" transform="translate(323,1)"/>
</svg>
