<?xml version="1.0" standalone="no"?>
<!DOCTYPE svg PUBLIC "-//W3C//DTD SVG 20010904//EN"
 "http://www.w3.org/TR/2001/REC-SVG-20010904/DTD/svg10.dtd">
<svg version="1.0" xmlns="http://www.w3.org/2000/svg"
 width="440.000000pt" height="198.000000pt" viewBox="0 0 440.000000 198.000000"
 preserveAspectRatio="xMidYMid meet">

<g transform="translate(0.000000,198.000000) scale(0.100000,-0.100000)"
fill="#000000" stroke="none">
<path d="M2015 1958 c-403 -19 -681 -66 -974 -164 -213 -71 -366 -153 -557
-298 -102 -77 -241 -238 -300 -346 -11 -21 -25 -44 -31 -52 -17 -23 -80 -190
-97 -258 -27 -115 -36 -233 -31 -411 6 -194 9 -217 37 -273 45 -89 119 -126
269 -133 105 -6 197 4 419 43 323 58 466 144 521 314 14 46 19 248 10 445 -4
82 -2 95 21 140 71 138 236 217 543 261 174 25 629 25 775 1 248 -42 365 -90
445 -185 68 -79 68 -81 69 -362 l1 -255 33 -68 c52 -104 103 -145 258 -206 86
-33 373 -81 578 -96 216 -15 356 63 381 214 11 66 8 404 -5 491 -13 92 -52
223 -92 310 -80 173 -284 415 -419 495 -35 21 -73 46 -84 56 -60 52 -346 175
-520 223 -331 92 -806 136 -1250 114z"/>
</g>
</svg>
