<?xml version="1.0" encoding="UTF-8"?>
<svg version="1.1" xmlns="http://www.w3.org/2000/svg" width="440" height="198">
<path d="M0 0 C3.01330427 0.00916416 6.02583126 0.00228998 9.0390625 -0.02050781 C39.30284154 -0.24784328 68.83529423 2.3467205 98.34545898 9.44604492 C99.19092285 9.64311035 100.03638672 9.84017578 100.9074707 10.04321289 C121.05061947 14.77466637 141.4563957 22.17948282 158.74780273 33.71557617 C160.46324412 34.85834389 162.20595083 35.96131716 163.97436523 37.02026367 C174.16685496 43.14762649 184.47957202 50.84756423 191.20092773 60.79760742 C192.42091156 62.6665293 192.42091156 62.6665293 194.72045898 64.75854492 C206.67433676 76.99703884 213.78331843 93.1602641 218.34545898 109.44604492 C218.51759918 110.05835968 218.68973938 110.67067444 218.86709595 111.30154419 C220.57754386 118.07565442 220.70202793 124.70033157 220.75170898 131.66088867 C220.76310913 132.91180801 220.77450928 134.16272736 220.78625488 135.45155334 C220.80507061 138.08632058 220.81818916 140.72113398 220.82592773 143.35595703 C220.83472153 146.03977496 220.86261645 148.72231549 220.90795898 151.40576172 C220.96911429 155.30369602 220.99004283 159.20002717 221.00170898 163.09838867 C221.02640259 164.28722153 221.05109619 165.47605438 221.07653809 166.70091248 C221.03398867 174.72136967 219.39783263 180.14127716 214.34545898 186.44604492 C206.43324915 194.17639813 194.95161988 195.44604492 184.34545898 195.44604492 C157.39834786 194.30783537 121.52621912 192.36009213 100.34545898 173.44604492 C99.03295898 170.19604492 99.03295898 170.19604492 98.34545898 167.44604492 C97.68545898 167.44604492 97.02545898 167.44604492 96.34545898 167.44604492 C95.69180499 165.90767785 95.04792295 164.36515727 94.40795898 162.82104492 C94.04831055 161.9625293 93.68866211 161.10401367 93.31811523 160.21948242 C91.05265748 153.75974344 91.00906863 147.03685559 90.72045898 140.25854492 C90.67252197 139.19933838 90.62458496 138.14013184 90.57519531 137.04882812 C90.31898951 130.34569921 90.49415962 123.81479308 91.03295898 117.13354492 C91.6796629 108.40940008 90.67327843 101.58333396 85.03295898 94.57104492 C84.14608398 93.86979492 83.25920898 93.16854492 82.34545898 92.44604492 C81.41733398 91.64166992 80.48920898 90.83729492 79.53295898 90.00854492 C61.53096416 77.82847182 36.36838867 76.76303478 15.34545898 76.44604492 C14.46680176 76.43089844 13.58814453 76.41575195 12.68286133 76.40014648 C6.234681 76.30564232 -0.20676067 76.33713363 -6.65454102 76.44604492 C-7.51128418 76.45861328 -8.36802734 76.47118164 -9.25073242 76.48413086 C-33.60934931 76.94152585 -64.84609225 78.25898765 -83.09204102 96.57104492 C-91.74737038 107.20623708 -89.63596418 120.00609591 -88.80981445 132.81811523 C-87.91908449 147.89329973 -88.24341705 162.20120533 -97.93188477 174.53198242 C-112.70903974 190.9510435 -138.11967043 193.47116715 -158.65454102 196.44604492 C-159.45988281 196.56608887 -160.26522461 196.68613281 -161.0949707 196.80981445 C-195.22548483 201.80361624 -195.22548483 201.80361624 -207.40063477 193.59448242 C-214.28884002 187.93595677 -217.9551007 182.10171178 -219.06054688 173.16308594 C-219.27138469 169.52417213 -219.36357583 165.90326241 -219.40454102 162.25854492 C-219.43201416 160.97077148 -219.4594873 159.68299805 -219.48779297 158.35620117 C-219.56025971 154.71952097 -219.60825953 151.0831312 -219.65454102 147.44604492 C-219.69257406 145.85614369 -219.73249454 144.26628453 -219.77563477 142.67651367 C-220.07463521 125.87972396 -216.8258792 106.37896965 -208.65454102 91.44604492 C-208.05512695 90.33745117 -207.45571289 89.22885742 -206.83813477 88.08666992 C-203.22179384 81.52199688 -199.4343032 75.23711536 -194.65454102 69.44604492 C-194.2586377 68.95749023 -193.86273438 68.46893555 -193.45483398 67.96557617 C-181.92603524 53.76850335 -181.92603524 53.76850335 -175.65454102 49.44604492 C-174.99454102 49.44604492 -174.33454102 49.44604492 -173.65454102 49.44604492 C-173.65454102 48.78604492 -173.65454102 48.12604492 -173.65454102 47.44604492 C-172.66454102 47.11604492 -171.67454102 46.78604492 -170.65454102 46.44604492 C-169.89141602 45.68291992 -169.12829102 44.91979492 -168.34204102 44.13354492 C-163.90977029 39.7012742 -158.92609037 36.97312101 -153.29125977 34.37573242 C-151.47079165 33.54257957 -151.47079165 33.54257957 -150.65454102 31.44604492 C-148.398649 30.26296813 -146.16117104 29.17821336 -143.84204102 28.13354492 C-142.81663208 27.66561523 -142.81663208 27.66561523 -141.77050781 27.18823242 C-139.7357354 26.26521351 -137.69623451 25.35363585 -135.65454102 24.44604492 C-134.67743164 24.00905273 -133.70032227 23.57206055 -132.69360352 23.12182617 C-113.47059434 14.83224772 -93.96055907 9.71778305 -73.43006897 5.95851135 C-71.68298254 5.63593375 -69.93696848 5.3074368 -68.19259644 4.9704895 C-45.6087777 0.68308529 -22.90952253 -0.07287999 0 0 Z " fill="#FDFDFD" transform="translate(219.654541015625,-0.446044921875)"/>
</svg>
