<?xml version="1.0" standalone="no"?>
<!DOCTYPE svg PUBLIC "-//W3C//DTD SVG 20010904//EN"
 "http://www.w3.org/TR/2001/REC-SVG-20010904/DTD/svg10.dtd">
<svg version="1.0" xmlns="http://www.w3.org/2000/svg"
 width="512.000000pt" height="512.000000pt" viewBox="0 0 512.000000 512.000000"
 preserveAspectRatio="xMidYMid meet">

<g transform="translate(0.000000,512.000000) scale(0.100000,-0.100000)"
fill="#000000" stroke="none">
<path d="M2393 4785 c-332 -60 -620 -300 -733 -612 -60 -166 -61 -192 -58
-935 4 -653 4 -675 25 -749 50 -179 139 -332 262 -453 l70 -70 -76 -110 c-103
-151 -95 -145 -136 -113 -66 50 -178 172 -236 257 -106 155 -165 293 -207 489
-14 63 -32 130 -41 148 -23 50 -67 76 -135 81 -50 4 -64 1 -97 -21 -45 -30
-71 -80 -71 -137 0 -55 63 -303 104 -410 92 -236 192 -388 382 -577 l142 -142
-309 -447 c-192 -279 -310 -457 -311 -473 -4 -81 14 -123 68 -160 43 -30 116
-33 161 -6 22 13 127 155 340 463 169 245 311 449 314 455 4 5 46 -7 105 -31
116 -47 215 -76 338 -97 49 -8 93 -15 97 -15 5 0 9 -108 9 -240 l0 -239 -269
-3 c-254 -3 -271 -4 -297 -24 -53 -39 -69 -71 -69 -134 0 -63 16 -95 69 -134
27 -21 36 -21 726 -21 690 0 699 0 726 21 53 39 69 71 69 134 0 63 -16 95 -69
134 -26 20 -43 21 -297 24 l-269 3 0 239 0 239 48 6 c577 82 1064 464 1275
1000 44 109 117 385 117 438 0 120 -124 194 -236 141 -49 -23 -70 -65 -104
-207 -70 -293 -170 -482 -356 -669 -351 -354 -885 -472 -1347 -298 -35 13 -57
27 -54 34 9 23 168 246 176 246 4 0 43 -9 87 -21 112 -29 276 -35 390 -15 380
66 670 333 777 715 20 73 21 100 25 631 l3 554 311 449 c267 386 311 456 316
493 6 54 -11 96 -54 134 -63 55 -156 49 -211 -13 -15 -18 -113 -155 -216 -305
-104 -149 -192 -272 -195 -272 -4 0 -18 28 -32 61 -62 157 -220 339 -380 437
-194 120 -444 168 -667 127z m302 -320 c291 -61 504 -328 505 -633 l0 -74
-526 -759 c-289 -417 -529 -759 -534 -759 -20 0 -115 122 -151 195 -68 138
-69 144 -69 845 0 704 1 706 71 850 126 255 419 395 704 335z m490 -1877 c-62
-303 -347 -522 -658 -505 -48 2 -90 7 -93 9 -2 3 168 254 378 558 l383 553 3
-271 c2 -210 -1 -288 -13 -344z"/>
</g>
</svg>
