<svg xmlns="http://www.w3.org/2000/svg" width="512" height="512" viewBox="0 0 512 512" version="1.1"><path d="M 200.404 86.809 C 193.708 89.147, 190.590 91.759, 171.011 111.432 L 154.523 128 131.511 128.012 C 106.518 128.025, 102.258 128.639, 92.131 133.691 C 84.508 137.494, 73.310 148.827, 69.595 156.500 C 63.806 168.456, 64.025 163.722, 64.012 277.568 C 63.999 393.500, 63.649 386.764, 70.345 399.500 C 76.887 411.942, 91.756 423.018, 105.799 425.909 C 113.270 427.447, 398.769 427.441, 406.201 425.903 C 424.898 422.033, 440.833 407.037, 446.405 388.068 C 447.821 383.247, 447.999 370.841, 447.988 277.568 C 447.975 163.270, 448.193 167.926, 442.309 156.131 C 438.506 148.508, 427.173 137.310, 419.500 133.595 C 409.081 128.551, 405.412 128.025, 380.554 128.012 L 357.608 128 338.462 109.014 C 324.535 95.203, 317.979 89.410, 314.408 87.764 C 309.532 85.515, 309.165 85.498, 257.500 85.265 C 209.857 85.050, 205.073 85.179, 200.404 86.809 M 237 183.869 C 217.770 188.081, 199.279 198.293, 187.250 211.344 C 183.691 215.205, 183 216.622, 183 220.055 C 183 225.540, 187.209 230, 192.385 230 C 195.278 230, 197.073 228.968, 202.212 224.350 C 216.067 211.900, 230.295 205.062, 246.967 202.843 C 274.619 199.161, 303.448 212.569, 318.989 236.341 C 323.072 242.586, 328.749 255.584, 327.806 256.528 C 327.522 256.811, 324.105 256.278, 320.211 255.344 C 314.371 253.942, 312.859 253.873, 311.566 254.945 C 310.705 255.660, 310 256.801, 310 257.480 C 310 258.952, 329.755 302.947, 331.225 304.750 C 331.786 305.438, 332.822 306, 333.528 306 C 334.234 306, 343.741 298.766, 354.656 289.924 C 379.857 269.508, 379.748 269.845, 362.584 265.446 L 350.668 262.391 348.296 253.446 C 339.620 220.729, 314.572 195.261, 281.421 185.450 C 269.202 181.834, 249.493 181.133, 237 183.869 M 157 264.954 C 146.275 273.667, 137.350 281.538, 137.167 282.446 C 136.550 285.512, 139.109 286.872, 150.457 289.511 L 161.767 292.141 162.416 296.197 C 163.368 302.151, 166.699 311.539, 170.685 319.500 C 195.209 368.485, 255.041 387.078, 302.588 360.488 C 310.289 356.182, 323.097 346.050, 326.529 341.552 C 330.034 336.956, 329.918 331.233, 326.250 327.799 C 320.412 322.333, 316.744 323.190, 307.027 332.290 C 298.900 339.902, 290.042 345.196, 279.500 348.742 C 272.182 351.204, 270.179 351.434, 256 351.434 C 241.821 351.434, 239.818 351.204, 232.500 348.742 C 228.100 347.262, 221.583 344.352, 218.017 342.276 C 209.727 337.447, 196.313 324.237, 191.844 316.500 C 187.530 309.030, 183.434 299.233, 184.274 298.393 C 184.621 298.046, 188.140 298.492, 192.095 299.385 C 199.496 301.057, 202 300.551, 202 297.383 C 202 295.832, 183.648 254.717, 181.408 251.250 C 180.608 250.012, 179.177 249.025, 178.227 249.056 C 177.277 249.087, 167.725 256.241, 157 264.954" stroke="none" fill="#fffcfc" fill-rule="evenodd"/><path d="" stroke="none" fill="#fcfcfc" fill-rule="evenodd"/></svg>