<?xml version="1.0" standalone="no"?>
<!DOCTYPE svg PUBLIC "-//W3C//DTD SVG 20010904//EN"
 "http://www.w3.org/TR/2001/REC-SVG-20010904/DTD/svg10.dtd">
<svg version="1.0" xmlns="http://www.w3.org/2000/svg"
 width="512.000000pt" height="512.000000pt" viewBox="0 0 512.000000 512.000000"
 preserveAspectRatio="xMidYMid meet">

<g transform="translate(0.000000,512.000000) scale(0.100000,-0.100000)"
fill="#000000" stroke="none">
<path d="M4615 4779 c-20 -6 -214 -193 -591 -570 l-562 -562 -4 99 c-3 80 -9
110 -30 156 -37 80 -107 151 -187 191 l-66 32 -1265 0 -1265 0 -57 -27 c-80
-37 -152 -107 -191 -187 l-32 -66 0 -1285 0 -1285 33 -67 c46 -94 131 -171
218 -198 36 -11 91 -20 122 -20 l55 0 -211 -215 c-117 -118 -221 -229 -232
-247 -58 -96 19 -212 128 -192 32 6 82 51 362 330 l326 324 990 0 c897 0 995
2 1040 17 104 35 176 99 227 202 l32 66 3 318 c3 279 5 318 18 313 9 -3 256
-134 551 -292 591 -315 591 -315 673 -272 31 16 51 36 67 67 l23 44 0 1107 0
1107 -23 43 c-26 50 -90 90 -141 90 -42 0 -66 -12 -633 -314 -274 -146 -506
-268 -515 -272 -15 -5 -18 0 -18 33 0 38 11 49 619 651 341 337 640 640 666
674 43 57 47 67 42 106 -5 49 -28 79 -74 98 -36 16 -55 16 -98 3z m-1464 -922
c55 -37 59 -52 59 -268 l0 -195 -1079 -1077 -1078 -1077 -174 0 c-157 0 -177
2 -207 20 -65 40 -62 -33 -62 1300 0 1333 -3 1260 62 1300 33 20 47 20 1239
20 l1206 0 34 -23z m1389 -1298 c0 -511 -3 -928 -7 -926 -5 2 -248 131 -541
287 l-532 282 2 360 3 359 530 284 c292 156 533 284 538 284 4 1 7 -418 7
-930z m-1345 -1250 c-9 -16 -30 -39 -48 -49 -31 -19 -57 -20 -882 -20 l-850 0
895 895 895 895 3 -845 c2 -749 0 -849 -13 -876z"/>
</g>
</svg>
