<?xml version="1.0" standalone="no"?>
<!DOCTYPE svg PUBLIC "-//W3C//DTD SVG 20010904//EN"
 "http://www.w3.org/TR/2001/REC-SVG-20010904/DTD/svg10.dtd">
<svg version="1.0" xmlns="http://www.w3.org/2000/svg"
 width="800.000000pt" height="800.000000pt" viewBox="0 0 800.000000 800.000000"
 preserveAspectRatio="xMidYMid meet">

<g transform="translate(0.000000,800.000000) scale(0.100000,-0.100000)"
fill="#000000" stroke="none">
<path d="M1606 6151 c-3 -4 -37 -11 -75 -14 -78 -6 -147 -33 -203 -77 -20 -17
-39 -30 -42 -30 -10 0 -56 -48 -56 -58 0 -6 -4 -12 -8 -14 -14 -5 -72 -129
-72 -153 0 -11 -6 -27 -12 -33 -19 -19 -19 -3508 -1 -3543 7 -13 14 -36 16
-51 5 -44 109 -208 133 -208 3 0 22 -13 42 -30 53 -42 121 -69 191 -77 34 -3
64 -10 67 -14 7 -12 3141 -12 3148 0 3 4 32 11 64 14 66 7 123 28 169 63 17
13 35 24 39 24 4 0 24 18 45 40 52 55 119 172 119 209 0 16 5 33 10 36 6 4 10
170 10 466 0 360 3 459 12 459 7 0 308 -294 668 -654 l655 -654 56 8 c62 9
120 35 169 77 40 33 100 125 100 152 0 10 6 21 13 23 19 7 18 3743 -2 3784 -8
16 -21 44 -30 63 -46 95 -169 181 -260 181 l-46 0 -655 -655 c-360 -360 -660
-655 -667 -655 -10 0 -13 105 -16 468 -2 257 -7 481 -11 497 -18 70 -78 168
-141 231 -57 57 -158 103 -240 111 -36 3 -68 10 -71 14 -7 12 -3111 12 -3118
0z"/>
</g>
</svg>
